<?xml version="1.0" encoding="UTF-8" standalone="no"?>
<!DOCTYPE svg PUBLIC "-//W3C//DTD SVG 1.1//EN"
 "http://www.w3.org/Graphics/SVG/1.1/DTD/svg11.dtd">
<!-- Generated by graphviz version 5.0.0 (20220707.1540)
 -->
<!-- Title: dependencies Pages: 1 -->
<svg width="747pt" height="174pt"
 viewBox="0.00 0.00 747.00 173.80" xmlns="http://www.w3.org/2000/svg" xmlns:xlink="http://www.w3.org/1999/xlink">
<g id="graph0" class="graph" transform="scale(1 1) rotate(0) translate(4 169.8)">
<title>dependencies</title>
<polygon fill="white" stroke="transparent" points="-4,4 -4,-169.8 743,-169.8 743,4 -4,4"/>
<text text-anchor="middle" x="369.5" y="-8.2" font-family="sans-serif" font-size="14.00">dependencies</text>
<g id="clust1" class="cluster">
<title>cluster_HikesModule</title>
<polygon fill="none" stroke="black" stroke-dasharray="1,5" points="8,-32.8 8,-157.8 731,-157.8 731,-32.8 8,-32.8"/>
</g>
<g id="clust6" class="cluster">
<title>cluster_HikesModule_imports</title>
<polygon fill="none" stroke="black" points="569,-40.8 569,-92.8 723,-92.8 723,-40.8 569,-40.8"/>
</g>
<g id="clust2" class="cluster">
<title>cluster_HikesModule_declarations</title>
<polygon fill="none" stroke="black" points="16,-40.8 16,-92.8 561,-92.8 561,-40.8 16,-40.8"/>
</g>
<!-- PageHikesAddComponent -->
<g id="node1" class="node">
<title>PageHikesAddComponent</title>
<polygon fill="#ffffb3" stroke="black" points="552.82,-84.8 387.18,-84.8 387.18,-48.8 552.82,-48.8 552.82,-84.8"/>
<text text-anchor="middle" x="470" y="-62.6" font-family="Times,serif" font-size="14.00">PageHikesAddComponent</text>
</g>
<!-- HikesModule -->
<g id="node4" class="node">
<title>HikesModule</title>
<polygon fill="#8dd3c7" stroke="black" points="424.21,-149.8 421.21,-153.8 400.21,-153.8 397.21,-149.8 331.79,-149.8 331.79,-113.8 424.21,-113.8 424.21,-149.8"/>
<text text-anchor="middle" x="378" y="-127.6" font-family="Times,serif" font-size="14.00">HikesModule</text>
</g>
<!-- PageHikesAddComponent&#45;&gt;HikesModule -->
<g id="edge1" class="edge">
<title>PageHikesAddComponent&#45;&gt;HikesModule</title>
<path fill="none" stroke="black" d="M405.72,-84.91C405.72,-84.91 405.72,-103.79 405.72,-103.79"/>
<polygon fill="black" stroke="black" points="402.22,-103.79 405.72,-113.79 409.22,-103.79 402.22,-103.79"/>
</g>
<!-- PageHikesEditComponent -->
<g id="node2" class="node">
<title>PageHikesEditComponent</title>
<polygon fill="#ffffb3" stroke="black" points="369.04,-84.8 204.96,-84.8 204.96,-48.8 369.04,-48.8 369.04,-84.8"/>
<text text-anchor="middle" x="287" y="-62.6" font-family="Times,serif" font-size="14.00">PageHikesEditComponent</text>
</g>
<!-- PageHikesEditComponent&#45;&gt;HikesModule -->
<g id="edge2" class="edge">
<title>PageHikesEditComponent&#45;&gt;HikesModule</title>
<path fill="none" stroke="black" d="M350.58,-84.91C350.58,-84.91 350.58,-103.79 350.58,-103.79"/>
<polygon fill="black" stroke="black" points="347.08,-103.79 350.58,-113.79 354.08,-103.79 347.08,-103.79"/>
</g>
<!-- PageHikesListComponent -->
<g id="node3" class="node">
<title>PageHikesListComponent</title>
<polygon fill="#ffffb3" stroke="black" points="186.49,-84.8 23.51,-84.8 23.51,-48.8 186.49,-48.8 186.49,-84.8"/>
<text text-anchor="middle" x="105" y="-62.6" font-family="Times,serif" font-size="14.00">PageHikesListComponent</text>
</g>
<!-- PageHikesListComponent&#45;&gt;HikesModule -->
<g id="edge3" class="edge">
<title>PageHikesListComponent&#45;&gt;HikesModule</title>
<path fill="none" stroke="black" d="M105,-84.91C105,-104.14 105,-131.8 105,-131.8 105,-131.8 321.69,-131.8 321.69,-131.8"/>
<polygon fill="black" stroke="black" points="321.69,-135.3 331.69,-131.8 321.69,-128.3 321.69,-135.3"/>
</g>
<!-- HikesRoutingModule -->
<g id="node5" class="node">
<title>HikesRoutingModule</title>
<polygon fill="#8dd3c7" stroke="black" points="714.83,-84.8 711.83,-88.8 690.83,-88.8 687.83,-84.8 577.17,-84.8 577.17,-48.8 714.83,-48.8 714.83,-84.8"/>
<text text-anchor="middle" x="646" y="-62.6" font-family="Times,serif" font-size="14.00">HikesRoutingModule</text>
</g>
<!-- HikesRoutingModule&#45;&gt;HikesModule -->
<g id="edge4" class="edge">
<title>HikesRoutingModule&#45;&gt;HikesModule</title>
<path fill="none" stroke="black" d="M646,-84.91C646,-104.14 646,-131.8 646,-131.8 646,-131.8 434.38,-131.8 434.38,-131.8"/>
<polygon fill="black" stroke="black" points="434.38,-128.3 424.38,-131.8 434.38,-135.3 434.38,-128.3"/>
</g>
</g>
</svg>
