<?xml version="1.0" encoding="UTF-8" standalone="no"?>
<!DOCTYPE svg PUBLIC "-//W3C//DTD SVG 1.1//EN"
 "http://www.w3.org/Graphics/SVG/1.1/DTD/svg11.dtd">
<!-- Generated by graphviz version 5.0.0 (20220707.1540)
 -->
<!-- Title: dependencies Pages: 1 -->
<svg width="550pt" height="247pt"
 viewBox="0.00 0.00 550.00 246.80" xmlns="http://www.w3.org/2000/svg" xmlns:xlink="http://www.w3.org/1999/xlink">
<g id="graph0" class="graph" transform="scale(1 1) rotate(0) translate(4 242.8)">
<title>dependencies</title>
<polygon fill="white" stroke="transparent" points="-4,4 -4,-242.8 546,-242.8 546,4 -4,4"/>
<text text-anchor="middle" x="271" y="-8.2" font-family="sans-serif" font-size="14.00">dependencies</text>
<g id="clust1" class="cluster">
<title>cluster_UiModule</title>
<polygon fill="none" stroke="black" stroke-dasharray="1,5" points="8,-32.8 8,-230.8 534,-230.8 534,-32.8 8,-32.8"/>
</g>
<g id="clust8" class="cluster">
<title>cluster_UiModule_exports</title>
<polygon fill="none" stroke="black" points="198,-170.8 198,-222.8 312,-222.8 312,-170.8 198,-170.8"/>
</g>
<g id="clust2" class="cluster">
<title>cluster_UiModule_declarations</title>
<polygon fill="none" stroke="black" points="16,-40.8 16,-92.8 526,-92.8 526,-40.8 16,-40.8"/>
</g>
<!-- FooterComponent -->
<g id="node1" class="node">
<title>FooterComponent</title>
<polygon fill="#ffffb3" stroke="black" points="517.88,-84.8 400.12,-84.8 400.12,-48.8 517.88,-48.8 517.88,-84.8"/>
<text text-anchor="middle" x="459" y="-62.6" font-family="Times,serif" font-size="14.00">FooterComponent</text>
</g>
<!-- UiModule -->
<g id="node5" class="node">
<title>UiModule</title>
<polygon fill="#8dd3c7" stroke="black" points="291.55,-149.8 288.55,-153.8 267.55,-153.8 264.55,-149.8 218.45,-149.8 218.45,-113.8 291.55,-113.8 291.55,-149.8"/>
<text text-anchor="middle" x="255" y="-127.6" font-family="Times,serif" font-size="14.00">UiModule</text>
</g>
<!-- FooterComponent&#45;&gt;UiModule -->
<g id="edge1" class="edge">
<title>FooterComponent&#45;&gt;UiModule</title>
<path fill="none" stroke="black" d="M459,-84.91C459,-104.14 459,-131.8 459,-131.8 459,-131.8 301.94,-131.8 301.94,-131.8"/>
<polygon fill="black" stroke="black" points="301.94,-128.3 291.94,-131.8 301.94,-135.3 301.94,-128.3"/>
</g>
<!-- HeaderComponent -->
<g id="node2" class="node">
<title>HeaderComponent</title>
<polygon fill="#ffffb3" stroke="black" points="381.75,-84.8 260.25,-84.8 260.25,-48.8 381.75,-48.8 381.75,-84.8"/>
<text text-anchor="middle" x="321" y="-62.6" font-family="Times,serif" font-size="14.00">HeaderComponent</text>
</g>
<!-- HeaderComponent&#45;&gt;UiModule -->
<g id="edge2" class="edge">
<title>HeaderComponent&#45;&gt;UiModule</title>
<path fill="none" stroke="black" d="M275.95,-84.91C275.95,-84.91 275.95,-103.79 275.95,-103.79"/>
<polygon fill="black" stroke="black" points="272.45,-103.79 275.95,-113.79 279.45,-103.79 272.45,-103.79"/>
</g>
<!-- NavComponent -->
<g id="node3" class="node">
<title>NavComponent</title>
<polygon fill="#ffffb3" stroke="black" points="242.16,-84.8 137.84,-84.8 137.84,-48.8 242.16,-48.8 242.16,-84.8"/>
<text text-anchor="middle" x="190" y="-62.6" font-family="Times,serif" font-size="14.00">NavComponent</text>
</g>
<!-- NavComponent&#45;&gt;UiModule -->
<g id="edge3" class="edge">
<title>NavComponent&#45;&gt;UiModule</title>
<path fill="none" stroke="black" d="M230.28,-84.91C230.28,-84.91 230.28,-103.79 230.28,-103.79"/>
<polygon fill="black" stroke="black" points="226.78,-103.79 230.28,-113.79 233.78,-103.79 226.78,-103.79"/>
</g>
<!-- UiComponent -->
<g id="node4" class="node">
<title>UiComponent</title>
<polygon fill="#ffffb3" stroke="black" points="119.83,-84.8 24.17,-84.8 24.17,-48.8 119.83,-48.8 119.83,-84.8"/>
<text text-anchor="middle" x="72" y="-62.6" font-family="Times,serif" font-size="14.00">UiComponent</text>
</g>
<!-- UiComponent&#45;&gt;UiModule -->
<g id="edge4" class="edge">
<title>UiComponent&#45;&gt;UiModule</title>
<path fill="none" stroke="black" d="M72,-84.91C72,-104.14 72,-131.8 72,-131.8 72,-131.8 208.41,-131.8 208.41,-131.8"/>
<polygon fill="black" stroke="black" points="208.41,-135.3 218.41,-131.8 208.41,-128.3 208.41,-135.3"/>
</g>
<!-- UiComponent  -->
<g id="node6" class="node">
<title>UiComponent </title>
<polygon fill="#fb8072" stroke="black" points="304.33,-214.8 205.67,-214.8 205.67,-178.8 304.33,-178.8 304.33,-214.8"/>
<text text-anchor="middle" x="255" y="-192.6" font-family="Times,serif" font-size="14.00">UiComponent </text>
</g>
<!-- UiModule&#45;&gt;UiComponent  -->
<g id="edge5" class="edge">
<title>UiModule&#45;&gt;UiComponent </title>
<path fill="none" stroke="black" stroke-dasharray="5,2" d="M255,-149.91C255,-149.91 255,-168.79 255,-168.79"/>
<polygon fill="black" stroke="black" points="251.5,-168.79 255,-178.79 258.5,-168.79 251.5,-168.79"/>
</g>
</g>
</svg>
