<?xml version="1.0" encoding="UTF-8" standalone="no"?>
<!DOCTYPE svg PUBLIC "-//W3C//DTD SVG 1.1//EN"
 "http://www.w3.org/Graphics/SVG/1.1/DTD/svg11.dtd">
<!-- Generated by graphviz version 5.0.0 (20220707.1540)
 -->
<!-- Title: dependencies Pages: 1 -->
<svg width="634pt" height="247pt"
 viewBox="0.00 0.00 634.00 246.80" xmlns="http://www.w3.org/2000/svg" xmlns:xlink="http://www.w3.org/1999/xlink">
<g id="graph0" class="graph" transform="scale(1 1) rotate(0) translate(4 242.8)">
<title>dependencies</title>
<polygon fill="white" stroke="transparent" points="-4,4 -4,-242.8 630,-242.8 630,4 -4,4"/>
<text text-anchor="middle" x="313" y="-8.2" font-family="sans-serif" font-size="14.00">dependencies</text>
<g id="clust1" class="cluster">
<title>cluster_AppModule</title>
<polygon fill="none" stroke="black" stroke-dasharray="1,5" points="8,-32.8 8,-230.8 618,-230.8 618,-32.8 8,-32.8"/>
</g>
<g id="clust2" class="cluster">
<title>cluster_AppModule_declarations</title>
<polygon fill="none" stroke="black" points="488,-40.8 488,-92.8 610,-92.8 610,-40.8 488,-40.8"/>
</g>
<g id="clust6" class="cluster">
<title>cluster_AppModule_bootstrap</title>
<polygon fill="none" stroke="black" points="217,-170.8 217,-222.8 341,-222.8 341,-170.8 217,-170.8"/>
</g>
<g id="clust4" class="cluster">
<title>cluster_AppModule_imports</title>
<polygon fill="none" stroke="black" points="16,-40.8 16,-92.8 480,-92.8 480,-40.8 16,-40.8"/>
</g>
<!-- AppComponent -->
<g id="node1" class="node">
<title>AppComponent</title>
<polygon fill="#ffffb3" stroke="black" points="601.94,-84.8 496.06,-84.8 496.06,-48.8 601.94,-48.8 601.94,-84.8"/>
<text text-anchor="middle" x="549" y="-62.6" font-family="Times,serif" font-size="14.00">AppComponent</text>
</g>
<!-- AppModule -->
<g id="node2" class="node">
<title>AppModule</title>
<polygon fill="#8dd3c7" stroke="black" points="320.66,-149.8 317.66,-153.8 296.66,-153.8 293.66,-149.8 237.34,-149.8 237.34,-113.8 320.66,-113.8 320.66,-149.8"/>
<text text-anchor="middle" x="279" y="-127.6" font-family="Times,serif" font-size="14.00">AppModule</text>
</g>
<!-- AppComponent&#45;&gt;AppModule -->
<g id="edge1" class="edge">
<title>AppComponent&#45;&gt;AppModule</title>
<path fill="none" stroke="black" d="M549,-85.08C549,-106.12 549,-137.8 549,-137.8 549,-137.8 330.89,-137.8 330.89,-137.8"/>
<polygon fill="black" stroke="black" points="330.89,-134.3 320.89,-137.8 330.89,-141.3 330.89,-134.3"/>
</g>
<!-- AppComponent  -->
<g id="node7" class="node">
<title>AppComponent </title>
<polygon fill="#80b1d3" stroke="black" points="333.44,-214.8 224.56,-214.8 224.56,-178.8 333.44,-178.8 333.44,-214.8"/>
<text text-anchor="middle" x="279" y="-192.6" font-family="Times,serif" font-size="14.00">AppComponent </text>
</g>
<!-- AppModule&#45;&gt;AppComponent  -->
<g id="edge6" class="edge">
<title>AppModule&#45;&gt;AppComponent </title>
<path fill="none" stroke="black" stroke-dasharray="1,5" d="M279,-149.91C279,-149.91 279,-168.79 279,-168.79"/>
<polygon fill="black" stroke="black" points="275.5,-168.79 279,-178.79 282.5,-168.79 275.5,-168.79"/>
</g>
<!-- AppRoutingModule -->
<g id="node3" class="node">
<title>AppRoutingModule</title>
<polygon fill="#8dd3c7" stroke="black" points="472.28,-84.8 469.28,-88.8 448.28,-88.8 445.28,-84.8 343.72,-84.8 343.72,-48.8 472.28,-48.8 472.28,-84.8"/>
<text text-anchor="middle" x="408" y="-62.6" font-family="Times,serif" font-size="14.00">AppRoutingModule</text>
</g>
<!-- AppRoutingModule&#45;&gt;AppModule -->
<g id="edge2" class="edge">
<title>AppRoutingModule&#45;&gt;AppModule</title>
<path fill="none" stroke="black" d="M408,-84.82C408,-102.17 408,-125.8 408,-125.8 408,-125.8 330.88,-125.8 330.88,-125.8"/>
<polygon fill="black" stroke="black" points="330.88,-122.3 320.88,-125.8 330.88,-129.3 330.88,-122.3"/>
</g>
<!-- LoginModule -->
<g id="node4" class="node">
<title>LoginModule</title>
<polygon fill="#8dd3c7" stroke="black" points="325.49,-84.8 322.49,-88.8 301.49,-88.8 298.49,-84.8 232.51,-84.8 232.51,-48.8 325.49,-48.8 325.49,-84.8"/>
<text text-anchor="middle" x="279" y="-62.6" font-family="Times,serif" font-size="14.00">LoginModule</text>
</g>
<!-- LoginModule&#45;&gt;AppModule -->
<g id="edge3" class="edge">
<title>LoginModule&#45;&gt;AppModule</title>
<path fill="none" stroke="black" d="M279,-84.91C279,-84.91 279,-103.79 279,-103.79"/>
<polygon fill="black" stroke="black" points="275.5,-103.79 279,-113.79 282.5,-103.79 275.5,-103.79"/>
</g>
<!-- SharedModule -->
<g id="node5" class="node">
<title>SharedModule</title>
<polygon fill="#8dd3c7" stroke="black" points="214.43,-84.8 211.43,-88.8 190.43,-88.8 187.43,-84.8 115.57,-84.8 115.57,-48.8 214.43,-48.8 214.43,-84.8"/>
<text text-anchor="middle" x="165" y="-62.6" font-family="Times,serif" font-size="14.00">SharedModule</text>
</g>
<!-- SharedModule&#45;&gt;AppModule -->
<g id="edge4" class="edge">
<title>SharedModule&#45;&gt;AppModule</title>
<path fill="none" stroke="black" d="M165,-84.82C165,-102.17 165,-125.8 165,-125.8 165,-125.8 227.2,-125.8 227.2,-125.8"/>
<polygon fill="black" stroke="black" points="227.2,-129.3 237.2,-125.8 227.2,-122.3 227.2,-129.3"/>
</g>
<!-- UiModule -->
<g id="node6" class="node">
<title>UiModule</title>
<polygon fill="#8dd3c7" stroke="black" points="97.55,-84.8 94.55,-88.8 73.55,-88.8 70.55,-84.8 24.45,-84.8 24.45,-48.8 97.55,-48.8 97.55,-84.8"/>
<text text-anchor="middle" x="61" y="-62.6" font-family="Times,serif" font-size="14.00">UiModule</text>
</g>
<!-- UiModule&#45;&gt;AppModule -->
<g id="edge5" class="edge">
<title>UiModule&#45;&gt;AppModule</title>
<path fill="none" stroke="black" d="M61,-85.08C61,-106.12 61,-137.8 61,-137.8 61,-137.8 227.23,-137.8 227.23,-137.8"/>
<polygon fill="black" stroke="black" points="227.23,-141.3 237.23,-137.8 227.23,-134.3 227.23,-141.3"/>
</g>
</g>
</svg>
