<?xml version="1.0" encoding="UTF-8" standalone="no"?>
<!DOCTYPE svg PUBLIC "-//W3C//DTD SVG 1.1//EN"
 "http://www.w3.org/Graphics/SVG/1.1/DTD/svg11.dtd">
<!-- Generated by graphviz version 5.0.0 (20220707.1540)
 -->
<!-- Title: dependencies Pages: 1 -->
<svg width="1747pt" height="323pt"
 viewBox="0.00 0.00 1747.00 322.80" xmlns="http://www.w3.org/2000/svg" xmlns:xlink="http://www.w3.org/1999/xlink">
<g id="graph0" class="graph" transform="scale(1 1) rotate(0) translate(4 318.8)">
<title>dependencies</title>
<polygon fill="white" stroke="transparent" points="-4,4 -4,-318.8 1743,-318.8 1743,4 -4,4"/>
<text text-anchor="middle" x="869.5" y="-8.2" font-family="sans-serif" font-size="14.00">dependencies</text>
<g id="clust1" class="cluster">
<title>cluster_AppModule</title>
<polygon fill="none" stroke="black" stroke-dasharray="1,5" points="390,-108.8 390,-306.8 1000,-306.8 1000,-108.8 390,-108.8"/>
</g>
<g id="clust2" class="cluster">
<title>cluster_AppModule_declarations</title>
<polygon fill="none" stroke="black" points="870,-116.8 870,-168.8 992,-168.8 992,-116.8 870,-116.8"/>
</g>
<g id="clust4" class="cluster">
<title>cluster_AppModule_imports</title>
<polygon fill="none" stroke="black" points="398,-116.8 398,-168.8 862,-168.8 862,-116.8 398,-116.8"/>
</g>
<g id="clust6" class="cluster">
<title>cluster_AppModule_bootstrap</title>
<polygon fill="none" stroke="black" points="599,-246.8 599,-298.8 723,-298.8 723,-246.8 599,-246.8"/>
</g>
<g id="clust14" class="cluster">
<title>cluster_HikesModule</title>
<polygon fill="none" stroke="black" stroke-dasharray="1,5" points="1008,-32.8 1008,-168.8 1731,-168.8 1731,-32.8 1008,-32.8"/>
</g>
<g id="clust15" class="cluster">
<title>cluster_HikesModule_declarations</title>
<polygon fill="none" stroke="black" points="1178,-40.8 1178,-92.8 1723,-92.8 1723,-40.8 1178,-40.8"/>
</g>
<g id="clust19" class="cluster">
<title>cluster_HikesModule_imports</title>
<polygon fill="none" stroke="black" points="1016,-40.8 1016,-92.8 1170,-92.8 1170,-40.8 1016,-40.8"/>
</g>
<g id="clust29" class="cluster">
<title>cluster_LoginModule</title>
<polygon fill="none" stroke="black" stroke-dasharray="1,5" points="664,-32.8 664,-100.8 1000,-100.8 1000,-32.8 664,-32.8"/>
</g>
<g id="clust30" class="cluster">
<title>cluster_LoginModule_declarations</title>
<polygon fill="none" stroke="black" points="834,-40.8 834,-92.8 992,-92.8 992,-40.8 834,-40.8"/>
</g>
<g id="clust32" class="cluster">
<title>cluster_LoginModule_imports</title>
<polygon fill="none" stroke="black" points="672,-40.8 672,-92.8 826,-92.8 826,-40.8 672,-40.8"/>
</g>
<g id="clust54" class="cluster">
<title>cluster_UiModule</title>
<polygon fill="none" stroke="black" stroke-dasharray="1,5" points="8,-32.8 8,-100.8 656,-100.8 656,-32.8 8,-32.8"/>
</g>
<g id="clust55" class="cluster">
<title>cluster_UiModule_declarations</title>
<polygon fill="none" stroke="black" points="138,-40.8 138,-92.8 648,-92.8 648,-40.8 138,-40.8"/>
</g>
<g id="clust61" class="cluster">
<title>cluster_UiModule_exports</title>
<polygon fill="none" stroke="black" points="16,-40.8 16,-92.8 130,-92.8 130,-40.8 16,-40.8"/>
</g>
<!-- AppComponent -->
<g id="node1" class="node">
<title>AppComponent</title>
<polygon fill="#ffffb3" stroke="black" points="983.94,-160.8 878.06,-160.8 878.06,-124.8 983.94,-124.8 983.94,-160.8"/>
<text text-anchor="middle" x="931" y="-138.6" font-family="Times,serif" font-size="14.00">AppComponent</text>
</g>
<!-- AppModule -->
<g id="node2" class="node">
<title>AppModule</title>
<polygon fill="#8dd3c7" stroke="black" points="702.66,-225.8 699.66,-229.8 678.66,-229.8 675.66,-225.8 619.34,-225.8 619.34,-189.8 702.66,-189.8 702.66,-225.8"/>
<text text-anchor="middle" x="661" y="-203.6" font-family="Times,serif" font-size="14.00">AppModule</text>
</g>
<!-- AppComponent&#45;&gt;AppModule -->
<g id="edge1" class="edge">
<title>AppComponent&#45;&gt;AppModule</title>
<path fill="none" stroke="black" d="M931,-161.08C931,-182.12 931,-213.8 931,-213.8 931,-213.8 712.89,-213.8 712.89,-213.8"/>
<polygon fill="black" stroke="black" points="712.89,-210.3 702.89,-213.8 712.89,-217.3 712.89,-210.3"/>
</g>
<!-- AppComponent  -->
<g id="node7" class="node">
<title>AppComponent </title>
<polygon fill="#80b1d3" stroke="black" points="715.44,-290.8 606.56,-290.8 606.56,-254.8 715.44,-254.8 715.44,-290.8"/>
<text text-anchor="middle" x="661" y="-268.6" font-family="Times,serif" font-size="14.00">AppComponent </text>
</g>
<!-- AppModule&#45;&gt;AppComponent  -->
<g id="edge6" class="edge">
<title>AppModule&#45;&gt;AppComponent </title>
<path fill="none" stroke="black" stroke-dasharray="1,5" d="M661,-225.91C661,-225.91 661,-244.79 661,-244.79"/>
<polygon fill="black" stroke="black" points="657.5,-244.79 661,-254.79 664.5,-244.79 657.5,-244.79"/>
</g>
<!-- AppRoutingModule -->
<g id="node3" class="node">
<title>AppRoutingModule</title>
<polygon fill="#8dd3c7" stroke="black" points="854.28,-160.8 851.28,-164.8 830.28,-164.8 827.28,-160.8 725.72,-160.8 725.72,-124.8 854.28,-124.8 854.28,-160.8"/>
<text text-anchor="middle" x="790" y="-138.6" font-family="Times,serif" font-size="14.00">AppRoutingModule</text>
</g>
<!-- AppRoutingModule&#45;&gt;AppModule -->
<g id="edge2" class="edge">
<title>AppRoutingModule&#45;&gt;AppModule</title>
<path fill="none" stroke="black" d="M790,-160.82C790,-178.17 790,-201.8 790,-201.8 790,-201.8 712.88,-201.8 712.88,-201.8"/>
<polygon fill="black" stroke="black" points="712.88,-198.3 702.88,-201.8 712.88,-205.3 712.88,-198.3"/>
</g>
<!-- LoginModule -->
<g id="node4" class="node">
<title>LoginModule</title>
<polygon fill="#8dd3c7" stroke="black" points="707.49,-160.8 704.49,-164.8 683.49,-164.8 680.49,-160.8 614.51,-160.8 614.51,-124.8 707.49,-124.8 707.49,-160.8"/>
<text text-anchor="middle" x="661" y="-138.6" font-family="Times,serif" font-size="14.00">LoginModule</text>
</g>
<!-- LoginModule&#45;&gt;AppModule -->
<g id="edge3" class="edge">
<title>LoginModule&#45;&gt;AppModule</title>
<path fill="none" stroke="black" d="M661,-160.91C661,-160.91 661,-179.79 661,-179.79"/>
<polygon fill="black" stroke="black" points="657.5,-179.79 661,-189.79 664.5,-179.79 657.5,-179.79"/>
</g>
<!-- SharedModule -->
<g id="node5" class="node">
<title>SharedModule</title>
<polygon fill="#8dd3c7" stroke="black" points="596.43,-160.8 593.43,-164.8 572.43,-164.8 569.43,-160.8 497.57,-160.8 497.57,-124.8 596.43,-124.8 596.43,-160.8"/>
<text text-anchor="middle" x="547" y="-138.6" font-family="Times,serif" font-size="14.00">SharedModule</text>
</g>
<!-- SharedModule&#45;&gt;AppModule -->
<g id="edge4" class="edge">
<title>SharedModule&#45;&gt;AppModule</title>
<path fill="none" stroke="black" d="M547,-160.82C547,-178.17 547,-201.8 547,-201.8 547,-201.8 609.2,-201.8 609.2,-201.8"/>
<polygon fill="black" stroke="black" points="609.2,-205.3 619.2,-201.8 609.2,-198.3 609.2,-205.3"/>
</g>
<!-- UiModule -->
<g id="node6" class="node">
<title>UiModule</title>
<polygon fill="#8dd3c7" stroke="black" points="479.55,-160.8 476.55,-164.8 455.55,-164.8 452.55,-160.8 406.45,-160.8 406.45,-124.8 479.55,-124.8 479.55,-160.8"/>
<text text-anchor="middle" x="443" y="-138.6" font-family="Times,serif" font-size="14.00">UiModule</text>
</g>
<!-- UiModule&#45;&gt;AppModule -->
<g id="edge5" class="edge">
<title>UiModule&#45;&gt;AppModule</title>
<path fill="none" stroke="black" d="M443,-161.08C443,-182.12 443,-213.8 443,-213.8 443,-213.8 609.23,-213.8 609.23,-213.8"/>
<polygon fill="black" stroke="black" points="609.23,-217.3 619.23,-213.8 609.23,-210.3 609.23,-217.3"/>
</g>
<!-- UiComponent  -->
<g id="node19" class="node">
<title>UiComponent </title>
<polygon fill="#fb8072" stroke="black" points="122.33,-84.8 23.67,-84.8 23.67,-48.8 122.33,-48.8 122.33,-84.8"/>
<text text-anchor="middle" x="73" y="-62.6" font-family="Times,serif" font-size="14.00">UiComponent </text>
</g>
<!-- UiModule&#45;&gt;UiComponent  -->
<g id="edge17" class="edge">
<title>UiModule&#45;&gt;UiComponent </title>
<path fill="none" stroke="black" stroke-dasharray="5,2" d="M406.17,-151.8C312.58,-151.8 73,-151.8 73,-151.8 73,-151.8 73,-94.83 73,-94.83"/>
<polygon fill="black" stroke="black" points="76.5,-94.83 73,-84.83 69.5,-94.83 76.5,-94.83"/>
</g>
<!-- PageHikesAddComponent -->
<g id="node8" class="node">
<title>PageHikesAddComponent</title>
<polygon fill="#ffffb3" stroke="black" points="1714.82,-84.8 1549.18,-84.8 1549.18,-48.8 1714.82,-48.8 1714.82,-84.8"/>
<text text-anchor="middle" x="1632" y="-62.6" font-family="Times,serif" font-size="14.00">PageHikesAddComponent</text>
</g>
<!-- HikesModule -->
<g id="node11" class="node">
<title>HikesModule</title>
<polygon fill="#8dd3c7" stroke="black" points="1404.21,-160.8 1401.21,-164.8 1380.21,-164.8 1377.21,-160.8 1311.79,-160.8 1311.79,-124.8 1404.21,-124.8 1404.21,-160.8"/>
<text text-anchor="middle" x="1358" y="-138.6" font-family="Times,serif" font-size="14.00">HikesModule</text>
</g>
<!-- PageHikesAddComponent&#45;&gt;HikesModule -->
<g id="edge7" class="edge">
<title>PageHikesAddComponent&#45;&gt;HikesModule</title>
<path fill="none" stroke="black" d="M1632,-84.81C1632,-107.29 1632,-142.8 1632,-142.8 1632,-142.8 1414.17,-142.8 1414.17,-142.8"/>
<polygon fill="black" stroke="black" points="1414.17,-139.3 1404.17,-142.8 1414.17,-146.3 1414.17,-139.3"/>
</g>
<!-- PageHikesEditComponent -->
<g id="node9" class="node">
<title>PageHikesEditComponent</title>
<polygon fill="#ffffb3" stroke="black" points="1531.04,-84.8 1366.96,-84.8 1366.96,-48.8 1531.04,-48.8 1531.04,-84.8"/>
<text text-anchor="middle" x="1449" y="-62.6" font-family="Times,serif" font-size="14.00">PageHikesEditComponent</text>
</g>
<!-- PageHikesEditComponent&#45;&gt;HikesModule -->
<g id="edge8" class="edge">
<title>PageHikesEditComponent&#45;&gt;HikesModule</title>
<path fill="none" stroke="black" d="M1385.42,-84.81C1385.42,-84.81 1385.42,-114.65 1385.42,-114.65"/>
<polygon fill="black" stroke="black" points="1381.92,-114.65 1385.42,-124.65 1388.92,-114.65 1381.92,-114.65"/>
</g>
<!-- PageHikesListComponent -->
<g id="node10" class="node">
<title>PageHikesListComponent</title>
<polygon fill="#ffffb3" stroke="black" points="1348.49,-84.8 1185.51,-84.8 1185.51,-48.8 1348.49,-48.8 1348.49,-84.8"/>
<text text-anchor="middle" x="1267" y="-62.6" font-family="Times,serif" font-size="14.00">PageHikesListComponent</text>
</g>
<!-- PageHikesListComponent&#45;&gt;HikesModule -->
<g id="edge9" class="edge">
<title>PageHikesListComponent&#45;&gt;HikesModule</title>
<path fill="none" stroke="black" d="M1330.19,-84.81C1330.19,-84.81 1330.19,-114.65 1330.19,-114.65"/>
<polygon fill="black" stroke="black" points="1326.69,-114.65 1330.19,-124.65 1333.69,-114.65 1326.69,-114.65"/>
</g>
<!-- HikesRoutingModule -->
<g id="node12" class="node">
<title>HikesRoutingModule</title>
<polygon fill="#8dd3c7" stroke="black" points="1161.83,-84.8 1158.83,-88.8 1137.83,-88.8 1134.83,-84.8 1024.17,-84.8 1024.17,-48.8 1161.83,-48.8 1161.83,-84.8"/>
<text text-anchor="middle" x="1093" y="-62.6" font-family="Times,serif" font-size="14.00">HikesRoutingModule</text>
</g>
<!-- HikesRoutingModule&#45;&gt;HikesModule -->
<g id="edge10" class="edge">
<title>HikesRoutingModule&#45;&gt;HikesModule</title>
<path fill="none" stroke="black" d="M1093,-84.81C1093,-107.29 1093,-142.8 1093,-142.8 1093,-142.8 1301.84,-142.8 1301.84,-142.8"/>
<polygon fill="black" stroke="black" points="1301.84,-146.3 1311.84,-142.8 1301.84,-139.3 1301.84,-146.3"/>
</g>
<!-- PageLoginComponent -->
<g id="node13" class="node">
<title>PageLoginComponent</title>
<polygon fill="#ffffb3" stroke="black" points="983.99,-84.8 842.01,-84.8 842.01,-48.8 983.99,-48.8 983.99,-84.8"/>
<text text-anchor="middle" x="913" y="-62.6" font-family="Times,serif" font-size="14.00">PageLoginComponent</text>
</g>
<!-- PageLoginComponent&#45;&gt;LoginModule -->
<g id="edge11" class="edge">
<title>PageLoginComponent&#45;&gt;LoginModule</title>
<path fill="none" stroke="black" d="M848.2,-85.04C848.2,-92.23 848.2,-98.8 848.2,-98.8 848.2,-98.8 698.31,-98.8 698.31,-98.8 698.31,-98.8 698.31,-114.65 698.31,-114.65"/>
<polygon fill="black" stroke="black" points="694.81,-114.65 698.31,-124.65 701.81,-114.65 694.81,-114.65"/>
</g>
<!-- LoginRoutingModule -->
<g id="node14" class="node">
<title>LoginRoutingModule</title>
<polygon fill="#8dd3c7" stroke="black" points="818.11,-84.8 815.11,-88.8 794.11,-88.8 791.11,-84.8 679.89,-84.8 679.89,-48.8 818.11,-48.8 818.11,-84.8"/>
<text text-anchor="middle" x="749" y="-62.6" font-family="Times,serif" font-size="14.00">LoginRoutingModule</text>
</g>
<!-- LoginRoutingModule&#45;&gt;LoginModule -->
<g id="edge12" class="edge">
<title>LoginRoutingModule&#45;&gt;LoginModule</title>
<path fill="none" stroke="black" d="M689.13,-84.81C689.13,-84.81 689.13,-114.65 689.13,-114.65"/>
<polygon fill="black" stroke="black" points="685.63,-114.65 689.13,-124.65 692.63,-114.65 685.63,-114.65"/>
</g>
<!-- FooterComponent -->
<g id="node15" class="node">
<title>FooterComponent</title>
<polygon fill="#ffffb3" stroke="black" points="639.88,-84.8 522.12,-84.8 522.12,-48.8 639.88,-48.8 639.88,-84.8"/>
<text text-anchor="middle" x="581" y="-62.6" font-family="Times,serif" font-size="14.00">FooterComponent</text>
</g>
<!-- FooterComponent&#45;&gt;UiModule -->
<g id="edge13" class="edge">
<title>FooterComponent&#45;&gt;UiModule</title>
<path fill="none" stroke="black" d="M559.14,-84.84C559.14,-97.36 559.14,-111.8 559.14,-111.8 559.14,-111.8 455.26,-111.8 455.26,-111.8 455.26,-111.8 455.26,-114.77 455.26,-114.77"/>
<polygon fill="black" stroke="black" points="451.76,-114.77 455.26,-124.77 458.76,-114.77 451.76,-114.77"/>
</g>
<!-- HeaderComponent -->
<g id="node16" class="node">
<title>HeaderComponent</title>
<polygon fill="#ffffb3" stroke="black" points="503.75,-84.8 382.25,-84.8 382.25,-48.8 503.75,-48.8 503.75,-84.8"/>
<text text-anchor="middle" x="443" y="-62.6" font-family="Times,serif" font-size="14.00">HeaderComponent</text>
</g>
<!-- HeaderComponent&#45;&gt;UiModule -->
<g id="edge14" class="edge">
<title>HeaderComponent&#45;&gt;UiModule</title>
<path fill="none" stroke="black" d="M430.74,-84.81C430.74,-84.81 430.74,-114.65 430.74,-114.65"/>
<polygon fill="black" stroke="black" points="427.24,-114.65 430.74,-124.65 434.24,-114.65 427.24,-114.65"/>
</g>
<!-- NavComponent -->
<g id="node17" class="node">
<title>NavComponent</title>
<polygon fill="#ffffb3" stroke="black" points="364.16,-84.8 259.84,-84.8 259.84,-48.8 364.16,-48.8 364.16,-84.8"/>
<text text-anchor="middle" x="312" y="-62.6" font-family="Times,serif" font-size="14.00">NavComponent</text>
</g>
<!-- NavComponent&#45;&gt;UiModule -->
<g id="edge15" class="edge">
<title>NavComponent&#45;&gt;UiModule</title>
<path fill="none" stroke="black" d="M312,-85.11C312,-104.95 312,-133.8 312,-133.8 312,-133.8 396.16,-133.8 396.16,-133.8"/>
<polygon fill="black" stroke="black" points="396.16,-137.3 406.16,-133.8 396.16,-130.3 396.16,-137.3"/>
</g>
<!-- UiComponent -->
<g id="node18" class="node">
<title>UiComponent</title>
<polygon fill="#ffffb3" stroke="black" points="241.83,-84.8 146.17,-84.8 146.17,-48.8 241.83,-48.8 241.83,-84.8"/>
<text text-anchor="middle" x="194" y="-62.6" font-family="Times,serif" font-size="14.00">UiComponent</text>
</g>
<!-- UiComponent&#45;&gt;UiModule -->
<g id="edge16" class="edge">
<title>UiComponent&#45;&gt;UiModule</title>
<path fill="none" stroke="black" d="M194,-84.81C194,-107.29 194,-142.8 194,-142.8 194,-142.8 396.26,-142.8 396.26,-142.8"/>
<polygon fill="black" stroke="black" points="396.26,-146.3 406.26,-142.8 396.26,-139.3 396.26,-146.3"/>
</g>
</g>
</svg>
